<svg width="14" height="14" viewBox="0 0 14 14" fill="none" xmlns="http://www.w3.org/2000/svg">
<g clip-path="url(#clip0_1066_1732)">
<path opacity="0.2" d="M11.6844 10.9914L10.9921 11.6837C10.91 11.7657 10.7988 11.8118 10.6828 11.8118C10.5668 11.8118 10.4556 11.7657 10.3736 11.6837L7.56754 8.87773C7.51715 8.82722 7.45517 8.7898 7.38701 8.76874C7.31885 8.74767 7.24657 8.74359 7.17647 8.75685C7.10636 8.77012 7.04057 8.80032 6.98482 8.84484C6.92907 8.88936 6.88505 8.94684 6.8566 9.01226L5.88207 11.5503C5.84585 11.6301 5.78653 11.6971 5.71179 11.7427C5.63705 11.7884 5.55032 11.8106 5.46284 11.8064C5.37536 11.8022 5.29115 11.7719 5.22111 11.7193C5.15106 11.6667 5.09841 11.5943 5.06996 11.5115L2.2098 2.75765C2.1864 2.68164 2.18416 2.60068 2.20332 2.52349C2.22248 2.4463 2.26233 2.37579 2.31857 2.31955C2.37481 2.26331 2.44532 2.22346 2.52251 2.2043C2.59971 2.18513 2.68066 2.18737 2.75668 2.21078L11.5121 5.06765C11.595 5.0961 11.6674 5.14876 11.7199 5.2188C11.7725 5.28885 11.8029 5.37306 11.807 5.46054C11.8112 5.54802 11.7891 5.63474 11.7434 5.70948C11.6977 5.78422 11.6307 5.84354 11.551 5.87976L9.01293 6.85429C8.9475 6.88274 8.89002 6.92676 8.84551 6.98252C8.80099 7.03827 8.77078 7.10406 8.75752 7.17416C8.74425 7.24426 8.74833 7.31654 8.7694 7.38471C8.79047 7.45287 8.82789 7.51484 8.8784 7.56523L11.6844 10.3712C11.7253 10.4119 11.7577 10.4602 11.7798 10.5134C11.8019 10.5666 11.8133 10.6237 11.8133 10.6813C11.8133 10.739 11.8019 10.796 11.7798 10.8492C11.7577 10.9024 11.7253 10.9508 11.6844 10.9914Z" fill="#C2C2C2"/>
<path d="M4.81254 1.31254V0.875036C4.81254 0.759004 4.85863 0.647724 4.94068 0.565677C5.02272 0.48363 5.134 0.437536 5.25004 0.437536C5.36607 0.437536 5.47735 0.48363 5.5594 0.565677C5.64144 0.647724 5.68754 0.759004 5.68754 0.875036V1.31254C5.68754 1.42857 5.64144 1.53985 5.5594 1.6219C5.47735 1.70394 5.36607 1.75004 5.25004 1.75004C5.134 1.75004 5.02272 1.70394 4.94068 1.6219C4.85863 1.53985 4.81254 1.42857 4.81254 1.31254ZM0.875036 5.68754H1.31254C1.42857 5.68754 1.53985 5.64144 1.6219 5.55939C1.70394 5.47735 1.75004 5.36607 1.75004 5.25004C1.75004 5.134 1.70394 5.02272 1.6219 4.94068C1.53985 4.85863 1.42857 4.81254 1.31254 4.81254H0.875036C0.759004 4.81254 0.647724 4.85863 0.565677 4.94068C0.48363 5.02272 0.437536 5.134 0.437536 5.25004C0.437536 5.36607 0.48363 5.47735 0.565677 5.55939C0.647724 5.64144 0.759004 5.68754 0.875036 5.68754ZM6.80426 2.1416C6.85567 2.16735 6.91165 2.18271 6.96901 2.1868C7.02636 2.1909 7.08396 2.18364 7.13851 2.16546C7.19306 2.14728 7.24349 2.11852 7.28692 2.08083C7.33034 2.04314 7.36592 1.99726 7.3916 1.94582L7.8291 1.07082C7.88102 0.967041 7.8896 0.846888 7.85293 0.736791C7.81627 0.626694 7.73737 0.535671 7.63359 0.483747C7.52982 0.431823 7.40966 0.42325 7.29956 0.459915C7.18947 0.496579 7.09845 0.575478 7.04652 0.679255L6.60902 1.55425C6.58325 1.60564 6.56786 1.66159 6.56373 1.71892C6.5596 1.77625 6.5668 1.83384 6.58493 1.88838C6.60306 1.94293 6.63177 1.99337 6.6694 2.03681C6.70703 2.08026 6.75286 2.11587 6.80426 2.1416ZM1.55425 6.60902L0.679255 7.04652C0.575478 7.09844 0.496579 7.18947 0.459915 7.29956C0.42325 7.40966 0.431823 7.52981 0.483747 7.63359C0.535671 7.73737 0.626694 7.81627 0.736791 7.85293C0.846888 7.8896 0.967041 7.88102 1.07082 7.8291L1.94582 7.3916C1.9972 7.36589 2.04302 7.33031 2.08065 7.28689C2.11829 7.24347 2.147 7.19307 2.16516 7.13855C2.18331 7.08404 2.19055 7.02648 2.18646 6.96917C2.18237 6.91186 2.16704 6.85591 2.14133 6.80453C2.11561 6.75314 2.08004 6.70733 2.03662 6.66969C1.9932 6.63206 1.9428 6.60334 1.88828 6.58519C1.83377 6.56703 1.77621 6.55979 1.7189 6.56388C1.66159 6.56797 1.60564 6.58331 1.55425 6.60902ZM11.9936 10.0625C12.0748 10.1438 12.1393 10.2403 12.1833 10.3464C12.2273 10.4526 12.2499 10.5664 12.2499 10.6813C12.2499 10.7962 12.2273 10.91 12.1833 11.0162C12.1393 11.1224 12.0748 11.2189 11.9936 11.3001L11.3001 11.9936C11.2189 12.0748 11.1224 12.1393 11.0162 12.1833C10.91 12.2273 10.7962 12.2499 10.6813 12.2499C10.5664 12.2499 10.4526 12.2273 10.3464 12.1833C10.2403 12.1393 10.1438 12.0748 10.0625 11.9936L7.25707 9.18754L6.2891 11.7081C6.2891 11.7136 6.28472 11.7196 6.28199 11.7256C6.21503 11.8817 6.10363 12.0147 5.96166 12.1079C5.81968 12.2012 5.65341 12.2506 5.48355 12.25H5.44035C5.2632 12.2425 5.09262 12.1808 4.95169 12.0732C4.81075 11.9656 4.70624 11.8174 4.6523 11.6485L1.79379 2.8941C1.74471 2.74099 1.73877 2.57733 1.77662 2.42107C1.81446 2.26481 1.89463 2.122 2.00832 2.00831C2.122 1.89463 2.26481 1.81446 2.42107 1.77662C2.57733 1.73877 2.74099 1.74471 2.8941 1.79379L11.6485 4.6523C11.8158 4.70827 11.9623 4.81351 12.0687 4.95422C12.1752 5.09492 12.2366 5.26452 12.2449 5.44075C12.2533 5.61698 12.2081 5.79162 12.1154 5.94174C12.0228 6.09187 11.8869 6.21047 11.7256 6.28199L11.7081 6.2891L9.18754 7.25652L11.9936 10.0625ZM11.375 10.6811L8.56902 7.87504C8.46802 7.77422 8.39321 7.65023 8.35111 7.51388C8.30901 7.37753 8.3009 7.23295 8.32749 7.09274C8.35407 6.95253 8.41455 6.82096 8.50364 6.70948C8.59273 6.598 8.70774 6.51 8.83863 6.45316L8.85613 6.4455L11.369 5.48082L2.62504 2.62504L5.47972 11.3674L6.44496 8.85176C6.44496 8.84574 6.44933 8.83972 6.45207 8.83371C6.50893 8.70292 6.59691 8.588 6.70833 8.49898C6.81975 8.40996 6.95125 8.34952 7.09136 8.32293C7.14548 8.3129 7.20039 8.30777 7.25543 8.30761C7.48726 8.30787 7.70952 8.40011 7.8734 8.5641L10.6811 11.375L11.375 10.6811Z" fill="#C2C2C2"/>
</g>
<defs>
<clipPath id="clip0_1066_1732">
<rect width="14" height="14" fill="white"/>
</clipPath>
</defs>
</svg>
